<svg version="1.1" id="Layer_1" xmlns="http://www.w3.org/2000/svg" xmlns:xlink="http://www.w3.org/1999/xlink" x="0px" y="0px"
	 width="100%" viewBox="0 0 228 222" enable-background="new 0 0 228 222" xml:space="preserve">
<path fill="#FDFCFB" opacity="1.000000" stroke="none" 
	d="
M110.000000,223.000000 
	C99.645775,223.000000 89.291542,223.000000 78.483643,222.605225 
	C80.660233,221.048508 83.290504,219.886551 85.730827,218.808502 
	C86.540047,216.298279 87.451485,213.470978 88.131317,211.362091 
	C85.530037,209.868347 83.030914,208.433258 81.182404,207.371780 
	C78.146545,209.200775 74.977585,211.109955 71.979591,212.916122 
	C76.202888,214.707001 77.930244,218.077438 76.000000,223.000000 
	C51.029827,223.000000 26.059652,223.000000 1.044739,223.000000 
	C1.044739,149.118134 1.044739,75.236237 1.044739,1.000000 
	C24.019682,1.000000 47.041183,1.000000 70.603378,1.410173 
	C71.302971,3.296986 71.212494,4.853788 71.657593,6.238422 
	C80.437332,33.550701 89.271339,60.845551 98.117401,88.136459 
	C99.356567,91.959404 100.716927,95.743065 102.251160,100.215302 
	C103.233658,99.000694 104.008766,98.465790 103.947716,98.055222 
	C102.814835,90.436111 101.676910,82.815269 100.350319,75.227974 
	C97.890434,61.158901 95.430374,47.087753 92.737000,33.062286 
	C90.677765,22.339056 88.258896,11.684889 86.000000,1.000000 
	C133.607529,1.000000 181.215042,1.000000 228.911285,1.000000 
	C228.911285,74.999924 228.911285,148.999954 228.911285,223.000000 
	C225.624313,223.000000 222.295105,223.000000 218.458099,222.651154 
	C221.216919,219.586029 224.483566,216.869751 228.373123,213.635498 
	C196.031570,192.443314 165.438110,172.396606 134.844666,152.349899 
	C134.493240,152.823578 134.141815,153.297256 133.790390,153.770920 
	C134.350372,154.518616 134.790176,155.410355 135.488113,155.992691 
	C149.107178,167.355927 162.815125,178.613266 176.382401,190.037720 
	C189.327835,200.938583 202.133118,212.005875 215.000000,223.000000 
	C185.979111,223.000000 156.958206,223.000000 127.481903,222.546143 
	C126.685837,218.816360 126.599602,215.490036 125.962006,212.272980 
	C122.586983,195.243851 119.073288,178.242188 115.710876,160.884766 
	C115.478416,159.696121 115.142746,158.853729 114.786674,157.713593 
	C114.705315,157.022919 114.644363,156.629974 114.688522,155.878662 
	C114.310730,154.266312 113.827805,153.012360 113.303261,151.414673 
	C113.171280,150.384491 113.080917,149.698059 113.038269,148.610657 
	C112.599266,146.020126 112.112564,143.830566 111.625854,141.641022 
	C110.341080,143.550446 110.182144,145.414825 110.176865,147.279617 
	C110.105438,172.519714 110.055359,197.759857 110.000000,223.000000 
M115.045891,103.121864 
	C115.008827,105.081291 114.971764,107.040726 114.986427,109.878510 
	C114.799171,112.198448 114.611916,114.518379 113.831192,117.161530 
	C113.604462,118.858543 113.377739,120.555550 113.151016,122.252563 
	C113.651283,122.349472 114.151558,122.446381 114.651833,122.543297 
	C115.082878,121.001907 115.513924,119.460510 116.037636,117.182945 
	C117.998840,111.183914 119.959427,105.184669 121.921387,99.185890 
	C126.049461,86.564079 130.255981,73.966705 134.200485,61.287788 
	C134.652603,59.834507 134.137497,56.828915 133.225098,56.417145 
	C129.071106,54.542454 124.614624,53.338020 119.498146,51.636967 
	C118.199783,69.162735 116.951164,86.016975 115.045891,103.121864 
M138.653503,127.787346 
	C141.713135,127.684418 144.772766,127.581482 148.655487,127.723343 
	C150.911072,127.297409 153.166641,126.871483 156.287216,126.462708 
	C159.854721,126.332245 163.422226,126.201775 167.565979,126.482185 
	C169.504852,126.113861 171.443726,125.745537 174.270462,125.392311 
	C190.529053,124.593384 206.790878,123.849457 223.040344,122.895256 
	C224.398407,122.815498 226.713715,121.421249 226.807465,120.463745 
	C227.222107,116.229156 226.986847,111.930939 226.986847,107.267632 
	C213.996521,109.901848 201.655670,112.394585 189.319107,114.908417 
	C172.561127,118.323181 155.806427,121.754066 138.263123,125.077545 
	C135.662506,125.707512 133.061890,126.337479 130.461258,126.967445 
	C130.568573,127.559494 130.675873,128.151535 130.783173,128.743591 
	C133.134155,128.431015 135.485123,128.118454 138.653503,127.787346 
M132.610489,99.177589 
	C130.574432,102.133781 128.538391,105.089973 126.502335,108.046165 
	C127.101952,108.466209 127.701561,108.886253 128.301178,109.306297 
	C130.627365,105.927864 132.953552,102.549431 135.885147,98.891449 
	C143.841370,89.366928 151.869507,79.901382 159.738434,70.305283 
	C174.899231,51.816784 189.996613,33.275925 205.013702,14.670749 
	C205.937988,13.525611 206.785172,11.079901 206.206345,10.186665 
	C204.292557,7.233445 201.708130,4.714832 199.358353,2.003158 
	C198.525864,2.711097 198.057632,2.965500 197.790482,3.357080 
	C185.069565,22.002577 172.331131,40.636295 159.672501,59.324066 
	C150.762115,72.478348 141.962952,85.707970 132.610489,99.177589 
M69.074341,114.305542 
	C76.348015,118.218628 83.621696,122.131714 90.895378,126.044800 
	C91.306984,125.456680 91.718590,124.868561 92.130196,124.280449 
	C68.077599,104.645668 44.025005,85.010887 19.722082,65.171761 
	C14.824574,70.640358 10.570699,75.390266 5.810574,80.705467 
	C26.971384,91.959229 47.685928,102.975662 69.074341,114.305542 
M84.585938,145.721741 
	C61.307110,157.718948 38.076767,169.811600 14.728944,181.673004 
	C3.113632,187.573929 3.016178,187.382095 8.626411,200.801132 
	C9.213750,200.550491 9.857566,200.389969 10.372188,200.039673 
	C33.249226,184.467178 56.127285,168.896088 78.964638,153.265518 
	C81.533867,151.507065 83.882454,149.421127 86.246826,147.386505 
	C86.345749,147.301392 85.563591,146.192383 84.585938,145.721741 
M100.457512,146.876633 
	C87.998558,158.692429 75.539597,170.508240 62.476036,182.897430 
	C70.169647,187.155762 77.282951,191.092911 85.056808,195.395660 
	C91.817848,178.234421 98.240288,161.932632 104.662727,145.630844 
	C104.240379,145.402161 103.818031,145.173462 103.395683,144.944763 
	C102.586143,145.416824 101.776604,145.888870 100.457512,146.876633 
M143.700851,200.929230 
	C147.310318,199.488358 150.919800,198.047485 155.096008,196.380371 
	C143.952606,180.264236 133.258224,164.797485 122.563850,149.330734 
	C121.975754,149.660690 121.387665,149.990631 120.799568,150.320587 
	C121.285347,151.939163 121.630157,153.617264 122.283669,155.165009 
	C124.149567,159.584122 126.100594,163.968643 128.091003,168.333557 
	C133.025848,179.155518 138.001282,189.959000 143.700851,200.929230 
M24.636700,140.840515 
	C44.247787,138.680084 63.858875,136.519638 83.469963,134.359207 
	C83.447662,133.805283 83.425369,133.251373 83.403069,132.697449 
	C67.093613,131.461929 50.794819,130.052490 34.470959,129.052032 
	C23.593700,128.385406 23.577703,128.646408 24.636700,140.840515 
M133.754135,140.581116 
	C144.788208,144.221863 155.794083,147.953735 166.891403,151.390198 
	C168.308472,151.829010 171.145096,151.244400 171.695496,150.240768 
	C173.228165,147.446075 173.903702,144.181305 175.068527,140.644257 
	C158.363403,139.248322 142.553833,137.927231 126.744278,136.606140 
	C126.657478,137.202530 126.570679,137.798920 126.483879,138.395325 
	C128.658157,139.045319 130.832443,139.695328 133.754135,140.581116 
M84.362862,100.173798 
	C89.764961,106.947624 95.167061,113.721451 100.569153,120.495277 
	C101.111198,118.735481 100.765526,117.536217 100.218147,116.437439 
	C95.415581,106.796913 90.608223,97.158501 85.739136,87.551468 
	C81.945518,80.066383 79.819191,79.614479 72.303986,84.862923 
	C76.176208,89.797630 80.037331,94.718185 84.362862,100.173798 
M3.825920,10.827122 
	C8.484225,13.358028 12.299315,16.306696 9.207052,23.107418 
	C13.470909,20.197466 17.166479,16.906984 21.325521,20.322111 
	C22.097376,16.325302 22.841970,12.469642 23.648825,8.291592 
	C18.591476,10.255007 17.221420,5.664757 14.351208,0.443290 
	C13.875961,8.841819 8.879186,9.306890 3.876891,9.781742 
	C3.776257,9.791295 3.699007,10.047194 3.825920,10.827122 
M31.507631,212.410614 
	C30.506720,206.450989 27.326372,203.704819 22.289963,204.451370 
	C17.702274,205.131424 15.169433,208.630035 15.922955,213.464737 
	C16.502392,217.182495 18.738562,219.446640 22.502857,219.867203 
	C27.511190,220.426773 30.224636,217.746017 31.507631,212.410614 
M130.728928,115.229240 
	C127.130310,118.501045 123.531685,121.772858 119.933067,125.044670 
	C120.228798,125.482224 120.524529,125.919777 120.820267,126.357338 
	C129.079956,122.138695 137.339645,117.920052 145.947723,113.523460 
	C144.616989,110.748932 143.458221,108.332939 142.037460,105.370720 
	C138.127777,108.757729 134.681015,111.743706 130.728928,115.229240 
M127.089447,15.281630 
	C127.663475,13.196854 128.237503,11.112078 128.583496,9.855496 
	C125.992119,8.025642 123.778458,6.462514 122.137398,5.303713 
	C119.214287,7.179150 116.155113,9.141883 113.112000,11.094311 
	C117.211342,12.302268 118.149681,16.115778 117.491585,19.467884 
	C120.743248,18.940239 123.519493,18.574518 126.241440,17.965950 
	C126.703857,17.862562 126.933228,16.716814 127.089447,15.281630 
M211.529022,183.014847 
	C215.508698,184.844894 216.727875,188.239212 216.339294,191.559937 
	C219.771469,190.842606 222.907089,190.187256 225.706985,189.602081 
	C226.165665,187.025970 226.682022,184.125854 227.117249,181.681534 
	C224.609085,180.239883 222.103058,178.799454 219.597031,177.359024 
	C219.776978,177.768478 219.956924,178.177917 220.136871,178.587372 
	C217.220993,179.823669 214.305115,181.059967 211.529022,183.014847 
M185.702408,111.374985 
	C189.363312,108.261192 190.251175,104.437660 187.960800,101.649208 
	C185.521927,98.679932 181.142105,98.084915 178.888168,101.034264 
	C177.580399,102.745522 176.796112,105.768906 177.339325,107.779526 
	C178.269547,111.222534 181.447311,112.222427 185.702408,111.374985 
M185.750290,53.981613 
	C183.401489,56.038097 181.052689,58.094582 179.094330,59.809219 
	C180.241791,61.835938 181.917191,64.795128 183.476929,67.550026 
	C185.659576,67.083801 188.508041,66.475357 191.558228,65.823822 
	C191.558228,65.012428 191.365265,63.515751 191.613678,62.096310 
	C191.851730,60.735989 192.547913,59.455833 192.729721,58.972538 
	C190.241699,56.964977 188.321655,55.415699 185.750290,53.981613 
M59.109444,13.424086 
	C55.852283,10.899220 52.427681,11.249625 50.747349,14.695731 
	C49.804409,16.629562 50.400379,20.420467 51.822655,22.040670 
	C52.904518,23.273081 56.913033,23.308775 58.677437,22.272720 
	C61.955421,20.347897 62.468784,17.053379 59.109444,13.424086 
M30.208397,49.297993 
	C27.122601,47.738850 24.036331,48.040493 22.322615,50.954983 
	C21.340036,52.626038 21.022871,56.017914 22.054749,57.220573 
	C23.469532,58.869492 26.508049,60.030060 28.745674,59.875847 
	C33.122044,59.574242 33.974014,54.714233 30.208397,49.297993 
M178.126663,209.400452 
	C177.380432,209.505859 176.634216,209.611267 176.142181,209.680771 
	C177.809601,212.585724 179.354324,215.276917 180.948700,218.054611 
	C183.084381,217.665802 185.762619,217.178223 188.394928,216.698990 
	C188.923279,214.442627 189.502396,211.969528 189.981552,209.923248 
	C187.938492,208.591751 185.711166,207.140152 183.743393,205.857727 
	C182.248367,206.932129 180.558563,208.146484 178.126663,209.400452 
M168.250031,16.541910 
	C168.593689,19.629911 169.774063,22.436081 173.300888,21.999693 
	C175.411591,21.738529 178.353180,20.315453 179.039291,18.642700 
	C179.719711,16.983871 178.663361,13.773065 177.263611,12.276684 
	C174.414444,9.230844 170.452805,10.977098 168.250031,16.541910 
M205.881622,77.382767 
	C206.969498,77.750015 208.369858,78.731857 209.085892,78.367783 
	C211.129440,77.328697 213.750824,76.094788 214.505447,74.262375 
	C215.138092,72.726097 214.058640,69.310272 212.658142,68.415268 
	C210.993469,67.351448 207.581894,67.189697 205.981155,68.241287 
	C202.719025,70.384300 203.114029,73.784912 205.881622,77.382767 
M221.474991,138.581009 
	C217.482452,139.380508 214.807114,141.641174 216.252228,145.789734 
	C216.855331,147.521149 219.848663,149.571091 221.599701,149.437531 
	C223.463379,149.295380 226.034790,147.058838 226.709732,145.169632 
	C227.957001,141.678436 225.034897,139.925781 221.474991,138.581009 
M170.969620,192.741928 
	C170.245895,191.688721 169.522186,190.635513 169.152710,190.097839 
	C166.244324,192.040665 164.126617,193.455322 162.230942,194.721664 
	C163.323456,196.581253 164.625580,198.797592 166.063522,201.245132 
	C167.822449,200.950424 170.246719,200.544250 173.433685,200.010284 
	C172.823792,197.606354 172.241165,195.309906 170.969620,192.741928 
M53.929333,74.705223 
	C52.757145,74.931549 51.584957,75.157875 50.576393,75.352608 
	C52.009289,77.803925 53.276958,79.972595 54.549969,82.150391 
	C56.239601,81.750946 58.331951,81.256294 60.528423,80.737030 
	C60.928387,78.929260 61.376759,76.902695 61.752441,75.204666 
	C59.882420,73.805801 58.267776,72.597977 56.493229,71.270531 
	C55.793015,72.383102 55.183952,73.350845 53.929333,74.705223 
M55.042400,191.863907 
	C53.507771,190.039078 51.973141,188.214249 50.914272,186.955154 
	C48.394749,188.455536 46.142857,189.796555 44.329182,190.876617 
	C45.533443,192.975830 46.827522,195.231598 48.151268,197.539078 
	C50.039612,197.159775 52.369339,196.691818 54.631386,196.237442 
	C54.690037,194.932083 54.740788,193.802521 55.042400,191.863907 
M187.156647,126.958183 
	C185.237625,128.456482 183.318604,129.954788 181.917740,131.048523 
	C183.280334,133.199341 184.628586,135.327530 185.872635,137.291229 
	C187.671097,136.913010 189.657318,136.495300 191.699661,136.065781 
	C192.047974,134.172638 192.424927,132.123718 192.744507,130.386749 
	C190.914307,129.012390 189.328796,127.821770 187.156647,126.958183 
M113.228668,38.054867 
	C111.715141,39.336933 110.201607,40.618999 108.870483,41.746559 
	C109.939766,43.398388 111.156174,45.277500 112.535049,47.407589 
	C113.925644,47.118324 115.948395,46.697563 117.893532,46.292950 
	C118.154213,44.533684 118.409531,42.810623 118.667709,41.068233 
	C117.028572,39.912884 115.368675,38.742905 113.228668,38.054867 
M142.946854,24.588697 
	C141.482025,27.680191 142.111786,30.531647 145.390930,31.290297 
	C146.866699,31.631725 149.428802,29.764906 150.535599,28.213482 
	C151.130493,27.379595 150.103928,24.131254 149.069855,23.684961 
	C147.481323,22.999372 145.256104,23.788994 142.946854,24.588697 
M27.059231,156.724625 
	C26.302689,156.536407 25.298222,155.946777 24.834749,156.233063 
	C23.261890,157.204514 21.880285,158.485626 20.465574,159.616516 
	C21.352020,161.390442 22.385693,163.459000 23.313675,165.316040 
	C25.210835,164.767792 27.065063,164.231949 29.013559,163.668869 
	C29.400541,162.073181 29.811058,160.380478 30.209856,158.736084 
	C29.177471,158.191742 28.312466,157.735641 27.059231,156.724625 
M166.568146,157.028046 
	C165.133621,156.080475 163.699097,155.132919 162.614426,154.416443 
	C160.426849,155.766815 158.541702,156.930496 157.138702,157.796539 
	C158.159317,159.964142 159.074326,161.907471 160.011780,163.898453 
	C161.705917,163.483475 163.700516,162.994888 165.709274,162.502838 
	C166.037216,160.941345 166.371185,159.351105 166.568146,157.028046 
M4.494489,112.817619 
	C3.877853,112.986221 3.261217,113.154823 3.001537,113.225822 
	C4.358803,115.204552 5.687414,117.141502 7.123230,119.234741 
	C8.602551,118.902710 10.474412,118.482567 13.740480,117.749496 
	C12.225657,114.636078 10.885501,111.881645 9.490944,109.015411 
	C7.367884,110.806450 6.261408,111.739883 4.494489,112.817619 
M215.778198,20.972925 
	C212.164490,17.499926 211.197037,24.047235 207.714844,22.211985 
	C209.540176,24.815847 210.850723,26.685364 212.289062,28.737165 
	C213.698639,28.526037 215.543350,28.249729 217.865891,27.901852 
	C216.198273,25.977955 221.488220,22.827904 215.778198,20.972925 
M13.842911,139.255905 
	C13.350851,137.247101 12.858791,135.238297 12.366735,133.229507 
	C10.446154,133.736496 8.095185,133.756927 6.766094,134.932602 
	C5.966316,135.640060 6.103293,138.702118 6.973007,139.727570 
	C8.703387,141.767822 11.218417,142.208145 13.842911,139.255905 
M77.429382,67.544250 
	C80.477348,67.222649 82.218391,65.425903 81.301170,62.547756 
	C80.840240,61.101402 78.771629,59.457912 77.265511,59.277542 
	C76.050323,59.132015 73.877686,60.782383 73.385162,62.103886 
	C72.387383,64.780991 73.508751,66.967377 77.429382,67.544250 
M129.008453,184.425415 
	C131.702072,182.546463 132.007233,180.059662 129.934448,177.804077 
	C129.111450,176.908508 126.710869,176.493942 125.650566,177.048904 
	C124.517212,177.642059 123.167068,180.281372 123.582870,180.894989 
	C124.663727,182.490005 126.661064,183.463974 129.008453,184.425415 
M104.889839,191.953995 
	C105.385323,189.440598 105.904701,186.647491 102.443840,186.148849 
	C101.010895,185.942383 98.835487,186.865250 97.973824,188.009521 
	C97.302094,188.901535 97.760323,192.034729 98.378304,192.247253 
	C100.238159,192.886841 102.421524,192.585709 104.889839,191.953995 
M154.596741,92.937508 
	C150.932968,88.342499 149.914108,95.983139 146.636490,93.942902 
	C148.237030,96.177444 149.428986,97.841553 150.699280,99.615021 
	C151.992035,99.338081 153.541580,99.006134 155.782440,98.526093 
	C155.619614,96.838089 155.442245,94.999519 154.596741,92.937508 
M183.500549,170.137375 
	C186.020050,171.365463 188.274704,171.015915 188.873825,168.120377 
	C189.170441,166.686920 188.443329,164.404327 187.355225,163.519760 
	C186.456726,162.789337 183.116638,163.225143 182.989410,163.706909 
	C182.486282,165.612122 182.821609,167.738739 183.500549,170.137375 
M59.895355,114.389412 
	C57.120205,113.625328 55.503433,114.733101 55.940449,117.537354 
	C56.081043,118.439522 58.170204,119.883316 59.020481,119.673218 
	C61.715191,119.007370 62.216743,117.111145 59.895355,114.389412 
M25.461006,103.363945 
	C26.095758,104.621330 26.730511,105.878723 27.714418,107.827759 
	C29.305136,106.186996 30.734007,105.073769 31.573292,103.620132 
	C31.814247,103.202805 30.291117,100.971527 29.683498,101.016396 
	C28.168427,101.128281 26.714655,102.070282 25.461006,103.363945 
z"/>
<path fill="#E83C34" opacity="1.000000" stroke="none" 
	d="
M85.533882,1.000000 
	C88.258896,11.684889 90.677765,22.339056 92.737000,33.062286 
	C95.430374,47.087753 97.890434,61.158901 100.350319,75.227974 
	C101.676910,82.815269 102.814835,90.436111 103.947716,98.055222 
	C104.008766,98.465790 103.233658,99.000694 102.251160,100.215302 
	C100.716927,95.743065 99.356567,91.959404 98.117401,88.136459 
	C89.271339,60.845551 80.437332,33.550701 71.657593,6.238422 
	C71.212494,4.853788 71.302971,3.296986 71.072037,1.410173 
	C75.689255,1.000000 80.378510,1.000000 85.533882,1.000000 
z"/>
<path fill="#9AC42C" opacity="1.000000" stroke="none" 
	d="
M215.375000,223.000000 
	C202.133118,212.005875 189.327835,200.938583 176.382401,190.037720 
	C162.815125,178.613266 149.107178,167.355927 135.488113,155.992691 
	C134.790176,155.410355 134.350372,154.518616 133.790390,153.770920 
	C134.141815,153.297256 134.493240,152.823578 134.844666,152.349899 
	C165.438110,172.396606 196.031570,192.443314 228.373123,213.635498 
	C224.483566,216.869751 221.216919,219.586029 217.975128,222.651154 
	C217.250000,223.000000 216.500000,223.000000 215.375000,223.000000 
z"/>
<path fill="#F39508" opacity="1.000000" stroke="none" 
	d="
M115.607666,161.231003 
	C119.073288,178.242188 122.586983,195.243851 125.962006,212.272980 
	C126.599602,215.490036 126.685837,218.816360 127.013245,222.546143 
	C122.975456,223.000000 118.950912,223.000000 114.231789,222.671417 
	C112.965546,220.610413 111.905922,218.880630 111.896484,217.145142 
	C111.782059,196.114136 111.795860,175.082214 111.873077,154.050873 
	C111.879250,152.369781 112.601227,150.691299 112.990555,149.011612 
	C113.080917,149.698059 113.171280,150.384491 113.195511,151.773300 
	C113.614059,153.729446 114.098732,154.983246 114.583405,156.237030 
	C114.644363,156.629974 114.705315,157.022919 114.589706,157.923309 
	C114.811325,159.364166 115.209496,160.297592 115.607666,161.231003 
z"/>
<path fill="#F9C47C" opacity="1.000000" stroke="none" 
	d="
M113.038269,148.610657 
	C112.601227,150.691299 111.879250,152.369781 111.873077,154.050873 
	C111.795860,175.082214 111.782059,196.114136 111.896484,217.145142 
	C111.905922,218.880630 112.965546,220.610413 113.768600,222.671417 
	C112.933327,223.000000 111.866661,223.000000 110.399994,223.000000 
	C110.055359,197.759857 110.105438,172.519714 110.176865,147.279617 
	C110.182144,145.414825 110.341080,143.550446 111.625854,141.641022 
	C112.112564,143.830566 112.599266,146.020126 113.038269,148.610657 
z"/>
<path fill="#16AAE7" opacity="1.000000" stroke="none" 
	d="
M76.333328,223.000000 
	C77.930244,218.077438 76.202888,214.707001 71.979591,212.916122 
	C74.977585,211.109955 78.146545,209.200775 81.182404,207.371780 
	C83.030914,208.433258 85.530037,209.868347 88.131317,211.362091 
	C87.451485,213.470978 86.540047,216.298279 85.730827,218.808502 
	C83.290504,219.886551 80.660233,221.048508 78.014984,222.605225 
	C77.555557,223.000000 77.111107,223.000000 76.333328,223.000000 
z"/>
<path fill="#F3970C" opacity="1.000000" stroke="none" 
	d="
M68.737411,114.148819 
	C47.685928,102.975662 26.971384,91.959229 5.810574,80.705467 
	C10.570699,75.390266 14.824574,70.640358 19.722082,65.171761 
	C44.025005,85.010887 68.077599,104.645668 92.130196,124.280449 
	C91.718590,124.868561 91.306984,125.456680 90.895378,126.044800 
	C83.621696,122.131714 76.348015,118.218628 68.737411,114.148819 
z"/>
<path fill="#EA4B7A" opacity="1.000000" stroke="none" 
	d="
M133.114120,98.903946 
	C141.962952,85.707970 150.762115,72.478348 159.672501,59.324066 
	C172.331131,40.636295 185.069565,22.002577 197.790482,3.357080 
	C198.057632,2.965500 198.525864,2.711097 199.358353,2.003158 
	C201.708130,4.714832 204.292557,7.233445 206.206345,10.186665 
	C206.785172,11.079901 205.937988,13.525611 205.013702,14.670749 
	C189.996613,33.275925 174.899231,51.816784 159.738434,70.305283 
	C151.869507,79.901382 143.841370,89.366928 135.041306,98.961761 
	C133.836349,98.989365 133.475235,98.946655 133.114120,98.903946 
z"/>
<path fill="#1F77BB" opacity="1.000000" stroke="none" 
	d="
M84.888924,145.641052 
	C85.563591,146.192383 86.345749,147.301392 86.246826,147.386505 
	C83.882454,149.421127 81.533867,151.507065 78.964638,153.265518 
	C56.127285,168.896088 33.249226,184.467178 10.372188,200.039673 
	C9.857566,200.389969 9.213750,200.550491 8.626411,200.801132 
	C3.016178,187.382095 3.113632,187.573929 14.728944,181.673004 
	C38.076767,169.811600 61.307110,157.718948 84.888924,145.641052 
z"/>
<path fill="#EA4878" opacity="1.000000" stroke="none" 
	d="
M147.832397,127.478546 
	C144.772766,127.581482 141.713135,127.684418 138.342102,127.443054 
	C138.370575,126.458519 138.710449,125.818275 139.050323,125.178032 
	C155.806427,121.754066 172.561127,118.323181 189.319107,114.908417 
	C201.655670,112.394585 213.996521,109.901848 226.986847,107.267632 
	C226.986847,111.930939 227.222107,116.229156 226.807465,120.463745 
	C226.713715,121.421249 224.398407,122.815498 223.040344,122.895256 
	C206.790878,123.849457 190.529053,124.593384 173.400574,125.274277 
	C170.683716,125.461258 168.836716,125.766281 166.989731,126.071304 
	C163.422226,126.201775 159.854721,126.332245 155.422272,126.323128 
	C152.315689,126.615211 150.074051,127.046875 147.832397,127.478546 
z"/>
<path fill="#EA4777" opacity="1.000000" stroke="none" 
	d="
M100.712280,146.618774 
	C101.776604,145.888870 102.586143,145.416824 103.395683,144.944763 
	C103.818031,145.173462 104.240379,145.402161 104.662727,145.630844 
	C98.240288,161.932632 91.817848,178.234421 85.056808,195.395660 
	C77.282951,191.092911 70.169647,187.155762 62.476036,182.897430 
	C75.539597,170.508240 87.998558,158.692429 100.712280,146.618774 
z"/>
<path fill="#1D76BA" opacity="1.000000" stroke="none" 
	d="
M114.424660,116.838318 
	C114.611916,114.518379 114.799171,112.198448 115.225739,109.154602 
	C115.544212,106.577545 115.623383,104.724380 115.702545,102.871223 
	C116.951164,86.016975 118.199783,69.162735 119.498146,51.636967 
	C124.614624,53.338020 129.071106,54.542454 133.225098,56.417145 
	C134.137497,56.828915 134.652603,59.834507 134.200485,61.287788 
	C130.255981,73.966705 126.049461,86.564079 121.921387,99.185890 
	C119.959427,105.184669 117.998840,111.183914 115.676598,117.479378 
	C115.018593,117.463310 114.721626,117.150818 114.424660,116.838318 
z"/>
<path fill="#E83E36" opacity="1.000000" stroke="none" 
	d="
M143.330627,200.849564 
	C138.001282,189.959000 133.025848,179.155518 128.091003,168.333557 
	C126.100594,163.968643 124.149567,159.584122 122.283669,155.165009 
	C121.630157,153.617264 121.285347,151.939163 120.799568,150.320587 
	C121.387665,149.990631 121.975754,149.660690 122.563850,149.330734 
	C133.258224,164.797485 143.952606,180.264236 155.096008,196.380371 
	C150.919800,198.047485 147.310318,199.488358 143.330627,200.849564 
z"/>
<path fill="#9AC42C" opacity="1.000000" stroke="none" 
	d="
M24.315943,140.508972 
	C23.577703,128.646408 23.593700,128.385406 34.470959,129.052032 
	C50.794819,130.052490 67.093613,131.461929 83.403069,132.697449 
	C83.425369,133.251373 83.447662,133.805283 83.469963,134.359207 
	C63.858875,136.519638 44.247787,138.680084 24.315943,140.508972 
z"/>
<path fill="#2278BC" opacity="1.000000" stroke="none" 
	d="
M133.380432,140.463226 
	C130.832443,139.695328 128.658157,139.045319 126.483879,138.395325 
	C126.570679,137.798920 126.657478,137.202530 126.744278,136.606140 
	C142.553833,137.927231 158.363403,139.248322 175.068527,140.644257 
	C173.903702,144.181305 173.228165,147.446075 171.695496,150.240768 
	C171.145096,151.244400 168.308472,151.829010 166.891403,151.390198 
	C155.794083,147.953735 144.788208,144.221863 133.380432,140.463226 
z"/>
<path fill="#9CC530" opacity="1.000000" stroke="none" 
	d="
M84.130661,99.906273 
	C80.037331,94.718185 76.176208,89.797630 72.303986,84.862923 
	C79.819191,79.614479 81.945518,80.066383 85.739136,87.551468 
	C90.608223,97.158501 95.415581,106.796913 100.218147,116.437439 
	C100.765526,117.536217 101.111198,118.735481 100.569153,120.495277 
	C95.167061,113.721451 89.764961,106.947624 84.130661,99.906273 
z"/>
<path fill="#2A7CBE" opacity="1.000000" stroke="none" 
	d="
M3.718384,10.507642 
	C3.699007,10.047194 3.776257,9.791295 3.876891,9.781742 
	C8.879186,9.306890 13.875961,8.841819 14.351208,0.443290 
	C17.221420,5.664757 18.591476,10.255007 23.648825,8.291592 
	C22.841970,12.469642 22.097376,16.325302 21.325521,20.322111 
	C17.166479,16.906984 13.470909,20.197466 9.207052,23.107418 
	C12.299315,16.306696 8.484225,13.358028 3.718384,10.507642 
z"/>
<path fill="#F4970E" opacity="1.000000" stroke="none" 
	d="
M31.462963,212.778000 
	C30.224636,217.746017 27.511190,220.426773 22.502857,219.867203 
	C18.738562,219.446640 16.502392,217.182495 15.922955,213.464737 
	C15.169433,208.630035 17.702274,205.131424 22.289963,204.451370 
	C27.326372,203.704819 30.506720,206.450989 31.462963,212.778000 
z"/>
<path fill="#F49C1A" opacity="1.000000" stroke="none" 
	d="
M130.981598,114.979462 
	C134.681015,111.743706 138.127777,108.757729 142.037460,105.370720 
	C143.458221,108.332939 144.616989,110.748932 145.947723,113.523460 
	C137.339645,117.920052 129.079956,122.138695 120.820267,126.357338 
	C120.524529,125.919777 120.228798,125.482224 119.933067,125.044670 
	C123.531685,121.772858 127.130310,118.501045 130.981598,114.979462 
z"/>
<path fill="#18AAE7" opacity="1.000000" stroke="none" 
	d="
M127.179855,15.667131 
	C126.933228,16.716814 126.703857,17.862562 126.241440,17.965950 
	C123.519493,18.574518 120.743248,18.940239 117.491585,19.467884 
	C118.149681,16.115778 117.211342,12.302268 113.112000,11.094311 
	C116.155113,9.141883 119.214287,7.179150 122.137398,5.303713 
	C123.778458,6.462514 125.992119,8.025642 128.583496,9.855496 
	C128.237503,11.112078 127.663475,13.196854 127.179855,15.667131 
z"/>
<path fill="#EA4E76" opacity="1.000000" stroke="none" 
	d="
M211.459122,182.655548 
	C214.305115,181.059967 217.220993,179.823669 220.136871,178.587372 
	C219.956924,178.177917 219.776978,177.768478 219.597031,177.359024 
	C222.103058,178.799454 224.609085,180.239883 227.117249,181.681534 
	C226.682022,184.125854 226.165665,187.025970 225.706985,189.602081 
	C222.907089,190.187256 219.771469,190.842606 216.339294,191.559937 
	C216.727875,188.239212 215.508698,184.844894 211.459122,182.655548 
z"/>
<path fill="#10A7E5" opacity="1.000000" stroke="none" 
	d="
M185.329468,111.493164 
	C181.447311,112.222427 178.269547,111.222534 177.339325,107.779526 
	C176.796112,105.768906 177.580399,102.745522 178.888168,101.034264 
	C181.142105,98.084915 185.521927,98.679932 187.960800,101.649208 
	C190.251175,104.437660 189.363312,108.261192 185.329468,111.493164 
z"/>
<path fill="#3380C0" opacity="1.000000" stroke="none" 
	d="
M186.075943,53.924019 
	C188.321655,55.415699 190.241699,56.964977 192.729721,58.972538 
	C192.547913,59.455833 191.851730,60.735989 191.613678,62.096310 
	C191.365265,63.515751 191.558228,65.012428 191.558228,65.823822 
	C188.508041,66.475357 185.659576,67.083801 183.476929,67.550026 
	C181.917191,64.795128 180.241791,61.835938 179.094330,59.809219 
	C181.052689,58.094582 183.401489,56.038097 186.075943,53.924019 
z"/>
<path fill="#F49A15" opacity="1.000000" stroke="none" 
	d="
M59.361362,13.660208 
	C62.468784,17.053379 61.955421,20.347897 58.677437,22.272720 
	C56.913033,23.308775 52.904518,23.273081 51.822655,22.040670 
	C50.400379,20.420467 49.804409,16.629562 50.747349,14.695731 
	C52.427681,11.249625 55.852283,10.899220 59.361362,13.660208 
z"/>
<path fill="#EA4D7B" opacity="1.000000" stroke="none" 
	d="
M30.511917,49.519600 
	C33.974014,54.714233 33.122044,59.574242 28.745674,59.875847 
	C26.508049,60.030060 23.469532,58.869492 22.054749,57.220573 
	C21.022871,56.017914 21.340036,52.626038 22.322615,50.954983 
	C24.036331,48.040493 27.122601,47.738850 30.511917,49.519600 
z"/>
<path fill="#F49C1B" opacity="1.000000" stroke="none" 
	d="
M178.497711,209.380646 
	C180.558563,208.146484 182.248367,206.932129 183.743393,205.857727 
	C185.711166,207.140152 187.938492,208.591751 189.981552,209.923248 
	C189.502396,211.969528 188.923279,214.442627 188.394928,216.698990 
	C185.762619,217.178223 183.084381,217.665802 180.948700,218.054611 
	C179.354324,215.276917 177.809601,212.585724 176.142181,209.680771 
	C176.634216,209.611267 177.380432,209.505859 178.497711,209.380646 
z"/>
<path fill="#9CC531" opacity="1.000000" stroke="none" 
	d="
M168.285828,16.159517 
	C170.452805,10.977098 174.414444,9.230844 177.263611,12.276684 
	C178.663361,13.773065 179.719711,16.983871 179.039291,18.642700 
	C178.353180,20.315453 175.411591,21.738529 173.300888,21.999693 
	C169.774063,22.436081 168.593689,19.629911 168.285828,16.159517 
z"/>
<path fill="#F49A15" opacity="1.000000" stroke="none" 
	d="
M205.597275,77.127151 
	C203.114029,73.784912 202.719025,70.384300 205.981155,68.241287 
	C207.581894,67.189697 210.993469,67.351448 212.658142,68.415268 
	C214.058640,69.310272 215.138092,72.726097 214.505447,74.262375 
	C213.750824,76.094788 211.129440,77.328697 209.085892,78.367783 
	C208.369858,78.731857 206.969498,77.750015 205.597275,77.127151 
z"/>
<path fill="#14A8E6" opacity="1.000000" stroke="none" 
	d="
M221.830032,138.609924 
	C225.034897,139.925781 227.957001,141.678436 226.709732,145.169632 
	C226.034790,147.058838 223.463379,149.295380 221.599701,149.437531 
	C219.848663,149.571091 216.855331,147.521149 216.252228,145.789734 
	C214.807114,141.641174 217.482452,139.380508 221.830032,138.609924 
z"/>
<path fill="#EC6082" opacity="1.000000" stroke="none" 
	d="
M171.314087,192.877686 
	C172.241165,195.309906 172.823792,197.606354 173.433685,200.010284 
	C170.246719,200.544250 167.822449,200.950424 166.063522,201.245132 
	C164.625580,198.797592 163.323456,196.581253 162.230942,194.721664 
	C164.126617,193.455322 166.244324,192.040665 169.152710,190.097839 
	C169.522186,190.635513 170.245895,191.688721 171.314087,192.877686 
z"/>
<path fill="#EC5D80" opacity="1.000000" stroke="none" 
	d="
M54.252113,74.511902 
	C55.183952,73.350845 55.793015,72.383102 56.493229,71.270531 
	C58.267776,72.597977 59.882420,73.805801 61.752441,75.204666 
	C61.376759,76.902695 60.928387,78.929260 60.528423,80.737030 
	C58.331951,81.256294 56.239601,81.750946 54.549969,82.150391 
	C53.276958,79.972595 52.009289,77.803925 50.576393,75.352608 
	C51.584957,75.157875 52.757145,74.931549 54.252113,74.511902 
z"/>
<path fill="#A6CA44" opacity="1.000000" stroke="none" 
	d="
M54.916969,192.268433 
	C54.740788,193.802521 54.690037,194.932083 54.631386,196.237442 
	C52.369339,196.691818 50.039612,197.159775 48.151268,197.539078 
	C46.827522,195.231598 45.533443,192.975830 44.329182,190.876617 
	C46.142857,189.796555 48.394749,188.455536 50.914272,186.955154 
	C51.973141,188.214249 53.507771,190.039078 54.916969,192.268433 
z"/>
<path fill="#A2C83D" opacity="1.000000" stroke="none" 
	d="
M187.449966,126.794662 
	C189.328796,127.821770 190.914307,129.012390 192.744507,130.386749 
	C192.424927,132.123718 192.047974,134.172638 191.699661,136.065781 
	C189.657318,136.495300 187.671097,136.913010 185.872635,137.291229 
	C184.628586,135.327530 183.280334,133.199341 181.917740,131.048523 
	C183.318604,129.954788 185.237625,128.456482 187.449966,126.794662 
z"/>
<path fill="#F6A939" opacity="1.000000" stroke="none" 
	d="
M113.468727,37.813896 
	C115.368675,38.742905 117.028572,39.912884 118.667709,41.068233 
	C118.409531,42.810623 118.154213,44.533684 117.893532,46.292950 
	C115.948395,46.697563 113.925644,47.118324 112.535049,47.407589 
	C111.156174,45.277500 109.939766,43.398388 108.870483,41.746559 
	C110.201607,40.618999 111.715141,39.336933 113.468727,37.813896 
z"/>
<path fill="#EB557A" opacity="1.000000" stroke="none" 
	d="
M143.123962,24.270668 
	C145.256104,23.788994 147.481323,22.999372 149.069855,23.684961 
	C150.103928,24.131254 151.130493,27.379595 150.535599,28.213482 
	C149.428802,29.764906 146.866699,31.631725 145.390930,31.290297 
	C142.111786,30.531647 141.482025,27.680191 143.123962,24.270668 
z"/>
<path fill="#F5A42D" opacity="1.000000" stroke="none" 
	d="
M27.253345,157.002090 
	C28.312466,157.735641 29.177471,158.191742 30.209856,158.736084 
	C29.811058,160.380478 29.400541,162.073181 29.013559,163.668869 
	C27.065063,164.231949 25.210835,164.767792 23.313675,165.316040 
	C22.385693,163.459000 21.352020,161.390442 20.465574,159.616516 
	C21.880285,158.485626 23.261890,157.204514 24.834749,156.233063 
	C25.298222,155.946777 26.302689,156.536407 27.253345,157.002090 
z"/>
<path fill="#F6A735" opacity="1.000000" stroke="none" 
	d="
M166.636658,157.394455 
	C166.371185,159.351105 166.037216,160.941345 165.709274,162.502838 
	C163.700516,162.994888 161.705917,163.483475 160.011780,163.898453 
	C159.074326,161.907471 158.159317,159.964142 157.138702,157.796539 
	C158.541702,156.930496 160.426849,155.766815 162.614426,154.416443 
	C163.699097,155.132919 165.133621,156.080475 166.636658,157.394455 
z"/>
<path fill="#EC6289" opacity="1.000000" stroke="none" 
	d="
M4.824710,112.745468 
	C6.261408,111.739883 7.367884,110.806450 9.490944,109.015411 
	C10.885501,111.881645 12.225657,114.636078 13.740480,117.749496 
	C10.474412,118.482567 8.602551,118.902710 7.123230,119.234741 
	C5.687414,117.141502 4.358803,115.204552 3.001537,113.225822 
	C3.261217,113.154823 3.877853,112.986221 4.824710,112.745468 
z"/>
<path fill="#2DB3EA" opacity="1.000000" stroke="none" 
	d="
M216.017883,21.248089 
	C221.488220,22.827904 216.198273,25.977955 217.865891,27.901852 
	C215.543350,28.249729 213.698639,28.526037 212.289062,28.737165 
	C210.850723,26.685364 209.540176,24.815847 207.714844,22.211985 
	C211.197037,24.047235 212.164490,17.499926 216.017883,21.248089 
z"/>
<path fill="#15A9E6" opacity="1.000000" stroke="none" 
	d="
M13.603189,139.508286 
	C11.218417,142.208145 8.703387,141.767822 6.973007,139.727570 
	C6.103293,138.702118 5.966316,135.640060 6.766094,134.932602 
	C8.095185,133.756927 10.446154,133.736496 12.366734,133.229492 
	C12.858791,135.238297 13.350851,137.247101 13.603189,139.508286 
z"/>
<path fill="#9EC633" opacity="1.000000" stroke="none" 
	d="
M77.063461,67.513420 
	C73.508751,66.967377 72.387383,64.780991 73.385162,62.103886 
	C73.877686,60.782383 76.050323,59.132015 77.265511,59.277542 
	C78.771629,59.457912 80.840240,61.101402 81.301170,62.547756 
	C82.218391,65.425903 80.477348,67.222649 77.063461,67.513420 
z"/>
<path fill="#21AFE8" opacity="1.000000" stroke="none" 
	d="
M128.650574,184.555573 
	C126.661064,183.463974 124.663727,182.490005 123.582870,180.894989 
	C123.167068,180.281372 124.517212,177.642059 125.650566,177.048904 
	C126.710869,176.493942 129.111450,176.908508 129.934448,177.804077 
	C132.007233,180.059662 131.702072,182.546463 128.650574,184.555573 
z"/>
<path fill="#EC6434" opacity="1.000000" stroke="none" 
	d="
M104.684273,192.302734 
	C102.421524,192.585709 100.238159,192.886841 98.378304,192.247253 
	C97.760323,192.034729 97.302094,188.901535 97.973824,188.009521 
	C98.835487,186.865250 101.010895,185.942383 102.443840,186.148849 
	C105.904701,186.647491 105.385323,189.440598 104.684273,192.302734 
z"/>
<path fill="#EB577C" opacity="1.000000" stroke="none" 
	d="
M154.930817,93.049225 
	C155.442245,94.999519 155.619614,96.838089 155.782440,98.526093 
	C153.541580,99.006134 151.992035,99.338081 150.699280,99.615021 
	C149.428986,97.841553 148.237030,96.177444 146.636490,93.942902 
	C149.914108,95.983139 150.932968,88.342499 154.930817,93.049225 
z"/>
<path fill="#EB557A" opacity="1.000000" stroke="none" 
	d="
M183.173279,169.960327 
	C182.821609,167.738739 182.486282,165.612122 182.989410,163.706909 
	C183.116638,163.225143 186.456726,162.789337 187.355225,163.519760 
	C188.443329,164.404327 189.170441,166.686920 188.873825,168.120377 
	C188.274704,171.015915 186.020050,171.365463 183.173279,169.960327 
z"/>
<path fill="#AFCF58" opacity="1.000000" stroke="none" 
	d="
M60.174301,114.605743 
	C62.216743,117.111145 61.715191,119.007370 59.020481,119.673218 
	C58.170204,119.883316 56.081043,118.439522 55.940449,117.537354 
	C55.503433,114.733101 57.120205,113.625328 60.174301,114.605743 
z"/>
<path fill="#1EAEE8" opacity="1.000000" stroke="none" 
	d="
M25.348642,103.021515 
	C26.714655,102.070282 28.168427,101.128281 29.683498,101.016396 
	C30.291117,100.971527 31.814247,103.202805 31.573292,103.620132 
	C30.734007,105.073769 29.305136,106.186996 27.714418,107.827759 
	C26.730511,105.878723 26.095758,104.621330 25.348642,103.021515 
z"/>
<path fill="#EE7092" opacity="1.000000" stroke="none" 
	d="
M132.862305,99.040771 
	C133.475235,98.946655 133.836349,98.989365 134.738602,99.101540 
	C132.953552,102.549431 130.627365,105.927864 128.301178,109.306297 
	C127.701561,108.886253 127.101952,108.466209 126.502335,108.046165 
	C128.538391,105.089973 130.574432,102.133781 132.862305,99.040771 
z"/>
<path fill="#F085A1" opacity="1.000000" stroke="none" 
	d="
M138.656723,125.127792 
	C138.710449,125.818275 138.370575,126.458519 137.933395,127.452324 
	C135.485123,128.118454 133.134155,128.431015 130.783173,128.743591 
	C130.675873,128.151535 130.568573,127.559494 130.461258,126.967445 
	C133.061890,126.337479 135.662506,125.707512 138.656723,125.127792 
z"/>
<path fill="#B3C7E6" opacity="1.000000" stroke="none" 
	d="
M114.127930,116.999924 
	C114.721626,117.150818 115.018593,117.463310 115.630264,117.847466 
	C115.513924,119.460510 115.082878,121.001907 114.651833,122.543297 
	C114.151558,122.446381 113.651283,122.349472 113.151016,122.252563 
	C113.377739,120.555550 113.604462,118.858543 114.127930,116.999924 
z"/>
<path fill="#F085A1" opacity="1.000000" stroke="none" 
	d="
M148.243942,127.600945 
	C150.074051,127.046875 152.315689,126.615211 154.989777,126.314545 
	C153.166641,126.871483 150.911072,127.297409 148.243942,127.600945 
z"/>
<path fill="#B3C7E6" opacity="1.000000" stroke="none" 
	d="
M115.374222,102.996544 
	C115.623383,104.724380 115.544212,106.577545 115.199875,108.715424 
	C114.971764,107.040726 115.008827,105.081291 115.374222,102.996544 
z"/>
<path fill="#F085A1" opacity="1.000000" stroke="none" 
	d="
M167.277863,126.276749 
	C168.836716,125.766281 170.683716,125.461258 172.956650,125.266731 
	C171.443726,125.745537 169.504852,126.113861 167.277863,126.276749 
z"/>
<path fill="#F9C47C" opacity="1.000000" stroke="none" 
	d="
M114.688522,155.878662 
	C114.098732,154.983246 113.614059,153.729446 113.237137,152.117035 
	C113.827805,153.012360 114.310730,154.266312 114.688522,155.878662 
z"/>
<path fill="#F9C47C" opacity="1.000000" stroke="none" 
	d="
M115.710876,160.884766 
	C115.209496,160.297592 114.811325,159.364166 114.610107,158.221039 
	C115.142746,158.853729 115.478416,159.696121 115.710876,160.884766 
z"/>
</svg>